<svg xmlns="http://www.w3.org/2000/svg" width="64" height="64" viewBox="0 0 64 64">
  <rect width="64" height="64" fill="#000000" opacity="0"/>
  <!-- Hood -->
  <rect x="24" y="6" width="16" height="4" fill="#6e1b1b"/>
  <rect x="20" y="10" width="24" height="4" fill="#7c2020"/>
  <rect x="18" y="14" width="28" height="4" fill="#8a2525"/>
  <rect x="16" y="18" width="32" height="4" fill="#972b2b"/>
  <!-- Head -->
  <rect x="26" y="22" width="12" height="4" fill="#e0b792"/>
  <rect x="24" y="26" width="16" height="4" fill="#d6a57d"/>
  <!-- Tunic -->
  <rect x="20" y="30" width="24" height="4" fill="#802020"/>
  <rect x="18" y="34" width="28" height="4" fill="#8d2525"/>
  <rect x="16" y="38" width="32" height="4" fill="#992b2b"/>
  <rect x="14" y="42" width="36" height="4" fill="#a03030"/>
  <rect x="12" y="46" width="40" height="4" fill="#ab3535"/>
  <rect x="10" y="50" width="44" height="4" fill="#b63b3b"/>
  <rect x="12" y="54" width="16" height="4" fill="#2b2d33"/>
  <rect x="36" y="54" width="16" height="4" fill="#2b2d33"/>
  <!-- Eyes -->
  <rect x="28" y="30" width="4" height="4" fill="#1c1f26"/>
  <rect x="36" y="30" width="4" height="4" fill="#1c1f26"/>
  <rect x="32" y="34" width="4" height="4" fill="#1c1f26"/>
  <!-- Arm -->
  <rect x="40" y="34" width="6" height="4" fill="#d6a57d"/>
  <rect x="42" y="38" width="6" height="4" fill="#c9966e"/>
  <!-- Bandurria -->
  <rect x="46" y="30" width="4" height="12" fill="#a06b30"/>
  <rect x="50" y="30" width="2" height="12" fill="#8b5b2a"/>
  <rect x="44" y="40" width="10" height="8" fill="#d6c06a"/>
  <rect x="42" y="42" width="14" height="4" fill="#e5d079"/>
  <rect x="48" y="42" width="4" height="4" fill="#8b5b2a"/>
  <rect x="52" y="32" width="2" height="8" fill="#f4e3a2"/>
</svg>
