<svg xmlns="http://www.w3.org/2000/svg" width="64" height="64" viewBox="0 0 64 64" shape-rendering="crispEdges">
  <rect width="64" height="64" fill="none"/>
  <rect x="16" y="16" width="32" height="4" fill="#3a2414"/>
  <rect x="12" y="20" width="40" height="4" fill="#4a2f1a"/>
  <rect x="8" y="24" width="48" height="4" fill="#5b3a21"/>
  <rect x="6" y="28" width="52" height="4" fill="#6b4326"/>
  <rect x="4" y="32" width="56" height="4" fill="#7a4f2b"/>
  <rect x="4" y="36" width="56" height="4" fill="#7a4f2b"/>
  <rect x="6" y="40" width="12" height="4" fill="#6b4326"/>
  <rect x="46" y="40" width="12" height="4" fill="#6b4326"/>
  <rect x="6" y="44" width="10" height="4" fill="#5b3a21"/>
  <rect x="48" y="44" width="10" height="4" fill="#5b3a21"/>
  <rect x="8" y="48" width="48" height="4" fill="#4a2f1a"/>
  <rect x="12" y="52" width="40" height="4" fill="#3a2414"/>
  <rect x="16" y="56" width="32" height="4" fill="#2a1a0f"/>

  <rect x="24" y="28" width="4" height="4" fill="#6e8b3d"/>
  <rect x="36" y="28" width="4" height="4" fill="#6e8b3d"/>
  <rect x="20" y="32" width="4" height="4" fill="#7fa64a"/>
  <rect x="40" y="32" width="4" height="4" fill="#7fa64a"/>
  <rect x="24" y="36" width="4" height="4" fill="#6e8b3d"/>
  <rect x="32" y="36" width="4" height="4" fill="#8fbf5a"/>
  <rect x="36" y="36" width="4" height="4" fill="#6e8b3d"/>
  <rect x="28" y="40" width="4" height="4" fill="#7fa64a"/>
  <rect x="32" y="44" width="4" height="4" fill="#6e8b3d"/>
</svg>
