<svg xmlns="http://www.w3.org/2000/svg" width="64" height="64" viewBox="0 0 64 64" shape-rendering="crispEdges">
  <rect width="64" height="64" fill="none"/>

  <!-- Head -->
  <rect x="24" y="8" width="16" height="4" fill="#2f4b2b"/>
  <rect x="20" y="12" width="24" height="8" fill="#4caf50"/>
  <rect x="16" y="12" width="4" height="4" fill="#2f4b2b"/>
  <rect x="44" y="12" width="4" height="4" fill="#2f4b2b"/>
  <rect x="20" y="20" width="24" height="4" fill="#3b8b3d"/>

  <!-- Eyes -->
  <rect x="24" y="16" width="4" height="4" fill="#fefefe"/>
  <rect x="28" y="16" width="4" height="4" fill="#1c1f26"/>
  <rect x="36" y="16" width="4" height="4" fill="#fefefe"/>
  <rect x="40" y="16" width="4" height="4" fill="#1c1f26"/>

  <!-- Torso -->
  <rect x="20" y="24" width="24" height="4" fill="#5b3a21"/>
  <rect x="16" y="28" width="32" height="8" fill="#6b4326"/>
  <rect x="20" y="36" width="24" height="4" fill="#3a2414"/>

  <!-- Arms -->
  <rect x="12" y="28" width="4" height="8" fill="#4caf50"/>
  <rect x="48" y="28" width="4" height="8" fill="#4caf50"/>
  <rect x="8" y="36" width="4" height="4" fill="#3b8b3d"/>
  <rect x="52" y="36" width="4" height="4" fill="#3b8b3d"/>

  <!-- Legs -->
  <rect x="24" y="40" width="8" height="12" fill="#2f4b2b"/>
  <rect x="32" y="40" width="8" height="12" fill="#2f4b2b"/>

  <!-- Feet -->
  <rect x="20" y="52" width="12" height="4" fill="#1f2b1b"/>
  <rect x="32" y="52" width="12" height="4" fill="#1f2b1b"/>
</svg>
