<svg xmlns="http://www.w3.org/2000/svg" width="64" height="64" viewBox="0 0 64 64">
  <rect width="64" height="64" fill="#000000" opacity="0"/>
  <!-- Horse body -->
  <rect x="10" y="34" width="34" height="14" fill="#6b4b2e"/>
  <rect x="6" y="36" width="8" height="10" fill="#5a3f26"/>
  <rect x="18" y="46" width="8" height="10" fill="#3a2a1b"/>
  <rect x="30" y="46" width="8" height="10" fill="#3a2a1b"/>
  <rect x="40" y="40" width="6" height="12" fill="#3a2a1b"/>
  <!-- Horse head -->
  <rect x="40" y="30" width="10" height="6" fill="#6b4b2e"/>
  <rect x="48" y="30" width="6" height="4" fill="#5a3f26"/>
  <rect x="46" y="26" width="4" height="4" fill="#7a5737"/>
  <!-- Saddle -->
  <rect x="20" y="30" width="18" height="6" fill="#2f3542"/>
  <rect x="24" y="26" width="10" height="4" fill="#4b5261"/>
  <!-- Knight torso -->
  <rect x="26" y="16" width="12" height="10" fill="#5b6475"/>
  <rect x="24" y="12" width="16" height="4" fill="#6a7385"/>
  <!-- Helmet -->
  <rect x="26" y="6" width="12" height="4" fill="#3b414f"/>
  <rect x="24" y="10" width="16" height="2" fill="#4b5261"/>
  <rect x="28" y="8" width="6" height="2" fill="#1c1f26"/>
  <!-- Arm and lance -->
  <rect x="38" y="16" width="4" height="8" fill="#5b6475"/>
  <rect x="42" y="10" width="2" height="28" fill="#c7cdd6"/>
  <rect x="41" y="8" width="4" height="2" fill="#9aa3b5"/>
  <rect x="41" y="38" width="4" height="2" fill="#8b5a2b"/>
  <!-- Shield -->
  <rect x="20" y="18" width="6" height="8" fill="#4b5261"/>
  <rect x="22" y="20" width="2" height="4" fill="#d2b36a"/>
</svg>
