<svg xmlns="http://www.w3.org/2000/svg" width="64" height="64" viewBox="0 0 64 64">
  <rect width="64" height="64" fill="#000000" opacity="0"/>
  <rect x="24" y="6" width="16" height="4" fill="#402060"/>
  <rect x="20" y="10" width="24" height="4" fill="#4b2770"/>
  <rect x="18" y="14" width="28" height="4" fill="#563080"/>
  <rect x="16" y="18" width="32" height="4" fill="#5e3890"/>
  <rect x="26" y="22" width="12" height="4" fill="#e3c4a8"/>
  <rect x="24" y="26" width="16" height="4" fill="#e3c4a8"/>
  <rect x="20" y="30" width="24" height="4" fill="#2a1a55"/>
  <rect x="18" y="34" width="28" height="4" fill="#2f1f60"/>
  <rect x="16" y="38" width="32" height="4" fill="#35266c"/>
  <rect x="14" y="42" width="36" height="4" fill="#3b2d78"/>
  <rect x="12" y="46" width="40" height="4" fill="#412f86"/>
  <rect x="10" y="50" width="44" height="4" fill="#473392"/>
  <rect x="12" y="54" width="16" height="4" fill="#2b2d33"/>
  <rect x="36" y="54" width="16" height="4" fill="#2b2d33"/>
  <rect x="28" y="30" width="4" height="4" fill="#1c1f26"/>
  <rect x="36" y="30" width="4" height="4" fill="#1c1f26"/>
  <rect x="32" y="34" width="4" height="4" fill="#1c1f26"/>
  <rect x="6" y="36" width="4" height="12" fill="#8b5b2a"/>
  <rect x="6" y="32" width="4" height="4" fill="#a06b30"/>
  <rect x="4" y="30" width="8" height="2" fill="#d6c96e"/>
</svg>
