<svg xmlns="http://www.w3.org/2000/svg" width="64" height="64" viewBox="0 0 64 64" shape-rendering="crispEdges">
  <rect x="20" y="20" width="24" height="4" fill="#5b3a21"/>
  <rect x="16" y="24" width="32" height="4" fill="#6b4326"/>
  <rect x="12" y="28" width="40" height="4" fill="#7a4f2b"/>
  <rect x="8" y="32" width="48" height="4" fill="#8a5c35"/>
  <rect x="6" y="36" width="52" height="4" fill="#8a5c35"/>
  <rect x="6" y="40" width="12" height="4" fill="#7a4f2b"/>
  <rect x="46" y="40" width="12" height="4" fill="#7a4f2b"/>
  <rect x="6" y="44" width="10" height="4" fill="#6b4326"/>
  <rect x="48" y="44" width="10" height="4" fill="#6b4326"/>
  <rect x="8" y="48" width="48" height="4" fill="#5b3a21"/>
  <rect x="12" y="52" width="40" height="4" fill="#4a2f1a"/>
  <rect x="16" y="56" width="32" height="4" fill="#3e2614"/>
  <rect x="24" y="32" width="4" height="4" fill="#b98546"/>
  <rect x="36" y="32" width="4" height="4" fill="#a8743a"/>
  <rect x="18" y="36" width="4" height="4" fill="#c19155"/>
  <rect x="42" y="36" width="4" height="4" fill="#c19155"/>
  <rect x="20" y="40" width="4" height="4" fill="#b98546"/>
  <rect x="28" y="40" width="4" height="4" fill="#d1a168"/>
  <rect x="32" y="40" width="4" height="4" fill="#b98546"/>
  <rect x="24" y="44" width="4" height="4" fill="#a8743a"/>
  <rect x="36" y="44" width="4" height="4" fill="#a8743a"/>
  <rect x="28" y="48" width="4" height="4" fill="#c19155"/>
  <rect x="32" y="48" width="4" height="4" fill="#c19155"/>
</svg>
