<svg xmlns="http://www.w3.org/2000/svg" width="64" height="64" viewBox="0 0 64 64">
  <rect width="64" height="64" fill="none"/>
  <!-- Tail -->
  <rect x="4" y="36" width="4" height="4" fill="#6fd07b"/>
  <rect x="8" y="32" width="4" height="4" fill="#6fd07b"/>
  <rect x="8" y="28" width="4" height="4" fill="#6fd07b"/>
  <rect x="8" y="36" width="4" height="4" fill="#6fd07b"/>
  <!-- Body -->
  <rect x="16" y="28" width="24" height="4" fill="#6f8c7b"/>
  <rect x="12" y="32" width="32" height="4" fill="#6f8c7b"/>
  <rect x="12" y="36" width="32" height="4" fill="#6f8c7b"/>
  <rect x="16" y="40" width="24" height="4" fill="#6f8c7b"/>
  <rect x="20" y="44" width="16" height="4" fill="#6f8c7b"/>
  <!-- Belly -->
  <rect x="20" y="36" width="12" height="4" fill="#9fb8a3"/>
  <rect x="20" y="40" width="8" height="4" fill="#9fb8a3"/>
  <!-- Head -->
  <rect x="40" y="24" width="12" height="4" fill="#6f8c7b"/>
  <rect x="40" y="28" width="16" height="4" fill="#6f8c7b"/>
  <rect x="44" y="32" width="12" height="4" fill="#6f8c7b"/>
  <rect x="44" y="36" width="8" height="4" fill="#6f8c7b"/>
  <!-- Ear -->
  <rect x="44" y="20" width="4" height="4" fill="#8fc58f"/>
  <!-- Eye -->
  <rect x="48" y="28" width="4" height="4" fill="#1b0f0f"/>
  <!-- Nose -->
  <rect x="52" y="32" width="4" height="4" fill="#6bc76b"/>
  <!-- Feet -->
  <rect x="20" y="48" width="4" height="4" fill="#2f3a2f"/>
  <rect x="32" y="48" width="4" height="4" fill="#2f3a2f"/>
</svg>
